<svg id="Isolation_Mode" data-name="Isolation Mode" xmlns="http://www.w3.org/2000/svg" width="330" height="255" viewBox="0 0 330 255"><defs><style>.cls-1{fill:#fff;opacity:0;}.cls-2{fill:#e1a569;}.cls-3{fill:#e0a569;}</style></defs><title>LookBook_FallLogo_Arabic</title><rect class="cls-1" width="330" height="255"/><path class="cls-2" d="M111.06,96.33a6,6,0,0,1-5.9-6.19v-.07A5.85,5.85,0,0,1,111,83.95a5.91,5.91,0,0,1,5.87,6.19v.06a5.85,5.85,0,0,1-5.8,6.13m-.06,5.73a12,12,0,0,0,12.39-11.93v-.07c0-6.59-5.24-11.86-12.32-11.86A12,12,0,0,0,98.67,90.14v.06c0,6.59,5.24,11.87,12.32,11.87"/><polygon class="cls-2" points="206.2 101.47 212.49 101.47 212.49 88.89 222.32 101.47 227.86 101.47 227.86 78.53 221.57 78.53 221.57 90.66 212.13 78.53 206.2 78.53 206.2 101.47"/><polygon class="cls-2" points="243.9 168.48 166.47 91.05 243.9 13.62 242.43 12.15 165 89.58 87.57 12.15 86.1 13.62 163.53 91.05 86.1 168.48 87.57 169.94 165 92.52 242.43 169.94 243.9 168.48"/><path class="cls-2" d="M148.76,35.65H146.7q-2.69,0-6.11.12l-5.35.23-3.54.15A7.7,7.7,0,0,1,127,35a4,4,0,0,1-1.35-3.34A12.27,12.27,0,0,1,126,28.6a35.47,35.47,0,0,1,1.57-4.23l1,.46a11.48,11.48,0,0,0-1.11,3.84A2.4,2.4,0,0,0,128.68,31a10.62,10.62,0,0,0,4.78.77q2.35-.14,4.58-.24t4.28-.1a1.65,1.65,0,0,1-1.11-1.78,8.32,8.32,0,0,1,1.34-4.38q1.45-2.35,3.18-2.35t2.37,2.28a22.29,22.29,0,0,1,.66,6.32Zm-1.2-18.13L145.72,21l-3.6-1.88L144,15.61Zm-1.2,12a8.85,8.85,0,0,0-.89-2,1.1,1.1,0,0,0-.92-.48.71.71,0,0,0-.52.22.78.78,0,0,0-.22.58q0,.48.66.89A7.6,7.6,0,0,0,146.36,29.51Z"/><path class="cls-2" d="M158,35.65h-9.63V31.46h8.09a4.8,4.8,0,0,0-.62-1.77,11.52,11.52,0,0,0-1.08-1.38L156,24.65a7.27,7.27,0,0,1,1.58,2.74,16,16,0,0,1,.42,4.24Zm-.25,2.71-1.69,3.14-2.18-1.23-1.23,2.43-2.86-1.57,1.6-3,2.28,1.14L155,36.79Z"/><path class="cls-2" d="M172.33,36a4.85,4.85,0,0,1-1.08,2.48,12.47,12.47,0,0,1-2.52,2.68A4.78,4.78,0,0,1,166,42.43a6.6,6.6,0,0,1-2.91-.77A38.09,38.09,0,0,1,158.85,39l.65-1a12.27,12.27,0,0,0,2.23,1.25,5.1,5.1,0,0,0,1.83.32,4.28,4.28,0,0,0,2.12-.6,18.66,18.66,0,0,0,2.89-2.23q2.55-2.27,2.55-3.51a3.93,3.93,0,0,0-.49-1.62,6.44,6.44,0,0,0-1.35-1.89l.86-4.15a7.67,7.67,0,0,1,1.62,2.48,8.4,8.4,0,0,1,.57,3.18Z"/><path class="cls-2" d="M189.51,35.65H171.94V31.46h10.94a14.65,14.65,0,0,0-3.45-2.77,5.76,5.76,0,0,0-2.74-.75,6.41,6.41,0,0,0-.73,0q-.33,0-1,.18a8.15,8.15,0,0,1,1.88-2.86,3.46,3.46,0,0,1,2.36-.92,4.16,4.16,0,0,1,2,.49,10.17,10.17,0,0,1,2.11,1.58q.92.86,2.61,2.69a10.13,10.13,0,0,0,1.76,1.68,5.8,5.8,0,0,0,1.82.65Zm-6.18-16.38-1.85,3.45-3.6-1.88,1.86-3.48Z"/><path class="cls-2" d="M197.58,35.65h-8.46V31.46h6.61L193.88,21l-1-.65a6.35,6.35,0,0,1,.28-1.83,16.52,16.52,0,0,1,1.2-2.78l.71.37a4.93,4.93,0,0,1-.06.49,1.29,1.29,0,0,0,.65,1,8.77,8.77,0,0,0,1.82,1,14.2,14.2,0,0,1-.41,1.92,12,12,0,0,1-.61,1.68l-.55-.21,1.68,9.52Z"/><path class="cls-2" d="M204,31.17a9.09,9.09,0,0,1-.32,2.5,20.36,20.36,0,0,1-1.25,3l-.92-.37a18.15,18.15,0,0,0,.37-3.2q0-.94-.15-2.75t-.38-3.59q-.23-1.78-.75-4.24a6.84,6.84,0,0,1-.18-1.18,5.07,5.07,0,0,1,.48-1.62q.48-1.15,1.34-2.78l.92,5.44q.51,3.11.71,5.38Q204,29.56,204,31.17Z"/><path class="cls-2" d="M151.38,140.69a1.6,1.6,0,0,0-1.47.8c.25-1.72,1.42-3,3.74-3.5l-.12-.63c-2.55.45-4.39,2.1-4.61,4.44-.13,1.4.5,2.32,1.77,2.32a2,2,0,0,0,2.1-1.89,1.31,1.31,0,0,0-1.4-1.55"/><path class="cls-2" d="M159.92,146.07l-2.92.13a15.33,15.33,0,0,0,.41-2.56h.89a4.46,4.46,0,0,0,4.72-3.43c.46,0,2.18,0,2.61,0,0,0-.86,3.25-1.42,6.65L163,154.14c-.15.86.05,1.55,1.22,1.55h1.5c-.1.41-.35,2.06-.38,2.46,0,0-3.48-.05-5.43-.05s-5.35.05-5.35.05c.1-.41.36-2.06.38-2.46h1.73a1.65,1.65,0,0,0,1.78-1.55Z"/><path class="cls-2" d="M172.15,148.78a4.91,4.91,0,0,1,4-1.8c3.27,0,4.72,2,4.21,5.48-.56,3.81-3.76,6-7.51,6-4.47,0-6.39-2.56-5.51-8.53,1-6.75,4.62-9.87,9-9.87,3.32,0,4.62,1.52,4.49,3.45a2.43,2.43,0,0,1-2.61,2.59c-1.37,0-2.08-.81-2-1.88a2.14,2.14,0,0,1,2.39-1.85,3.43,3.43,0,0,1,.51.05,2.55,2.55,0,0,0-2.23-.84C174.41,141.6,173,143.5,172.15,148.78Zm1.07,7.82c1.52,0,2.21-1.45,2.59-4s-.13-3.73-1.45-3.73c-1.5,0-2.36.94-2.77,3.73C171.21,155.15,171.46,156.6,173.21,156.6Z"/><path class="cls-3" d="M77,208.9l-2.25,6.46a36.56,36.56,0,0,0-7.13,2.42,20.7,20.7,0,0,0-4.75,3.2,56.32,56.32,0,0,0-4.13,4.38L57,224.74A8.2,8.2,0,0,1,58,221a25.26,25.26,0,0,1,2.58-3.85,34.45,34.45,0,0,1-3.48-3.85,4.16,4.16,0,0,1-.84-2.39q0-1.57,2.16-5.48a22.42,22.42,0,0,1,3.72-5.34,5.24,5.24,0,0,1,3.67-1.43,7,7,0,0,1,3.5.84,12.59,12.59,0,0,1,3.3,3l-3.76,6.24a11.06,11.06,0,0,0-2.47-2.18,4.29,4.29,0,0,0-2.19-.69,2.62,2.62,0,0,0-1.56.49,1.4,1.4,0,0,0-.69,1.14,2.61,2.61,0,0,0,1.17,1.87,23.41,23.41,0,0,0,3.95,2.4,36.9,36.9,0,0,1,5.31-2.18A26.63,26.63,0,0,1,77,208.9Z"/><path class="cls-3" d="M93.17,219.77H89.23a5,5,0,0,1-4.75-2.7q-1.63-3-1.63-10v-8a9.66,9.66,0,0,0-.76-4.24,10.28,10.28,0,0,0-1.69-2.11l3-7a14.72,14.72,0,0,1,2.28,4.44,23.39,23.39,0,0,1,.76,6.52v5.53q0,5.87.79,8.15.62,1.83,2,1.83h3.93Z"/><path class="cls-3" d="M108.78,219.77H91.2v-7.64H106a8.77,8.77,0,0,0-1.12-3.23,20.94,20.94,0,0,0-2-2.53l2.25-6.68a13.26,13.26,0,0,1,2.88,5,29.17,29.17,0,0,1,.77,7.75Zm-.45,4.94-3.09,5.73-4-2.25L99,232.63l-5.22-2.87,2.92-5.45,4.16,2.08,2.36-4.55Z"/><path class="cls-3" d="M133.67,220.42q0,1.71-2,4.54a22.74,22.74,0,0,1-4.61,4.9q-2.92,2.3-5,2.3a12,12,0,0,1-5.31-1.4,69.69,69.69,0,0,1-7.72-4.83l1.18-1.74a22.38,22.38,0,0,0,4.07,2.28,9.29,9.29,0,0,0,3.34.59,7.82,7.82,0,0,0,3.88-1.1,34.15,34.15,0,0,0,5.28-4.07q4.66-4.16,4.66-6.4a7.18,7.18,0,0,0-.9-2.95,11.76,11.76,0,0,0-2.47-3.46l1.57-7.58a14,14,0,0,1,2.95,4.52,15.34,15.34,0,0,1,1,5.81Zm-1.43-28.79-3.37,6.29-6.57-3.43,3.34-6.35Z"/><path class="cls-3" d="M160.74,189.91a20.46,20.46,0,0,1-.39,4q-.17.84-.79,3.06l-2-.79a28.29,28.29,0,0,1-.79,6.6,26.47,26.47,0,0,1-2.53,6.49q1.54,2.78,1.8,3.26a5.13,5.13,0,0,1,.67,2.33v.87q0,.7-.45,5.73a23.18,23.18,0,0,1-5.72,2,46,46,0,0,1-7.49.45v-8.31a24.86,24.86,0,0,0,4.06-2.46,24.51,24.51,0,0,0,3.19-3.44q-3.2-4-4.66-5.7-1.18-1.35-3-3.12a10.09,10.09,0,0,1-.66,1.22q-.21.3-.41.3a6.44,6.44,0,0,1-2.53-1.15,18.62,18.62,0,0,1-2.56-1.85,5.67,5.67,0,0,1-1.36-3,28.77,28.77,0,0,1-.46-5.69,8.16,8.16,0,0,1,.18-2.11.75.75,0,0,1,.77-.59q1.09,0,4.44,3.15a61.76,61.76,0,0,1,5.11,5.39,48.85,48.85,0,0,1,3.2,3.88q1.29,1.71,4,5.9a18,18,0,0,0,1.74-6.1,44.17,44.17,0,0,0,.28-5.36,3.87,3.87,0,0,1-1.38-.94,2,2,0,0,1-.37-1.25,16.66,16.66,0,0,1,.37-3.43,18.48,18.48,0,0,1,1.21-3.65l1.18.39a2.76,2.76,0,0,0,.84,2.39A23.85,23.85,0,0,0,160.74,189.91Zm-7.36,24.44L152,212.27a24.86,24.86,0,0,1-1.9,2q-.66.58-2.32,1.76a19.43,19.43,0,0,0,3-.49A14,14,0,0,0,153.39,214.35Z"/><path class="cls-3" d="M172,211.6a16.59,16.59,0,0,1-.59,4.56,37.07,37.07,0,0,1-2.28,5.55l-1.69-.67a33.16,33.16,0,0,0,.67-5.84q0-1.71-.28-5t-.7-6.56q-.42-3.24-1.38-7.74a12.46,12.46,0,0,1-.34-2.16,9.26,9.26,0,0,1,.87-3q.87-2.09,2.44-5.07l1.69,9.94q.93,5.67,1.29,9.83Q172,208.65,172,211.6Z"/><path class="cls-3" d="M227.45,219.77H203.89q-3.4,0-4.51-.11a9.85,9.85,0,0,1-2.4-.59,7.16,7.16,0,0,1-3.79-3.2,10.07,10.07,0,0,1-1.49-5.39,17,17,0,0,1,.11-2.06,15.6,15.6,0,0,1,.45-2.15,17.46,17.46,0,0,1,1.07-3.06,25.07,25.07,0,0,1,2.08-3.34L197,201a24,24,0,0,0-1.64,3.51,8,8,0,0,0-.44,2.56,4.48,4.48,0,0,0,1,2.88,4.74,4.74,0,0,0,2.68,1.67,16.47,16.47,0,0,0,2.57.39q1.59.14,3.33.14h20.31a23.3,23.3,0,0,0-1.29-3,21.13,21.13,0,0,0-1.91-2.72l2.53-6.52a17.55,17.55,0,0,1,2.75,5.51,27.86,27.86,0,0,1,.56,6.46Zm-11,5.93L213.1,232l-6.52-3.54L210,222Z"/><path class="cls-3" d="M240.94,219.77H237a5,5,0,0,1-4.75-2.7q-1.63-3-1.63-10v-8a9.66,9.66,0,0,0-.76-4.24,10.28,10.28,0,0,0-1.69-2.11l3-7a14.72,14.72,0,0,1,2.28,4.44,23.39,23.39,0,0,1,.76,6.52v5.53q0,5.87.79,8.15.62,1.83,2,1.83h3.93Z"/><path class="cls-3" d="M256.55,219.77H239v-7.64h14.77a8.77,8.77,0,0,0-1.12-3.23,20.94,20.94,0,0,0-2-2.53l2.25-6.68a13.26,13.26,0,0,1,2.88,5,29.17,29.17,0,0,1,.77,7.75Zm-.45-30L253,195.47l-4-2.25-2.25,4.44-5.22-2.87,2.92-5.45,4.16,2.08,2.36-4.55Z"/><path class="cls-3" d="M277.28,219.77h-22.7v-7.64h18.23a26.23,26.23,0,0,0-2.13-2.3q-.84-.79-2.28-1.91l-3.17-2.47-.9,1q-2.5-2.47-3-3a5.42,5.42,0,0,1-1.4-3.68,13.88,13.88,0,0,1,.39-4,6,6,0,0,1,2.39-2.89,29,29,0,0,1,3.48-2q1.46-.73,3.88-1.71l4.75-1.85V194q-.14,0-2.36.73-2.75.9-4.38,1.57-2.36,1-2.36,1.43a10.5,10.5,0,0,0,2,2.19q2.72,2.64,4.58,4.83a41.34,41.34,0,0,1,5,7.22Z"/></svg>