<svg id="Isolation_Mode" data-name="Isolation Mode" xmlns="http://www.w3.org/2000/svg" width="330" height="255" viewBox="0 0 330 255"><defs><style>.cls-1{fill:#fff;opacity:0;}.cls-2{fill:#e1a569;}.cls-3{fill:#e4a864;}.cls-4{fill:#e6aa5e;}</style></defs><title>LookBook_FallLogo_Indonesia</title><rect class="cls-1" width="330" height="255"/><path class="cls-2" d="M111.06,100.83a6,6,0,0,1-5.9-6.19v-.07A5.85,5.85,0,0,1,111,88.45a5.91,5.91,0,0,1,5.87,6.19v.06a5.85,5.85,0,0,1-5.8,6.13m-.06,5.73a12,12,0,0,0,12.39-11.93v-.07c0-6.59-5.24-11.86-12.32-11.86A12,12,0,0,0,98.67,94.64v.06c0,6.59,5.24,11.87,12.32,11.87"/><polygon class="cls-2" points="206.2 105.97 212.49 105.97 212.49 93.39 222.32 105.97 227.86 105.97 227.86 83.03 221.57 83.03 221.57 95.16 212.13 83.03 206.2 83.03 206.2 105.97"/><polygon class="cls-2" points="243.9 172.98 166.47 95.55 243.9 18.12 242.43 16.65 165 94.08 87.57 16.65 86.1 18.12 163.53 95.55 86.1 172.98 87.57 174.44 165 97.02 242.43 174.44 243.9 172.98"/><path class="cls-2" d="M151.38,145.19a1.6,1.6,0,0,0-1.47.8c.25-1.72,1.42-3,3.74-3.5l-.12-.63c-2.55.45-4.39,2.1-4.61,4.44-.13,1.4.5,2.32,1.77,2.32a2,2,0,0,0,2.1-1.89,1.31,1.31,0,0,0-1.4-1.55"/><path class="cls-2" d="M159.92,150.57l-2.92.13a15.33,15.33,0,0,0,.41-2.56h.89a4.46,4.46,0,0,0,4.72-3.43c.46,0,2.18,0,2.61,0,0,0-.86,3.25-1.42,6.65L163,158.64c-.15.86.05,1.55,1.22,1.55h1.5c-.1.41-.36,2.06-.38,2.46,0,0-3.48-.05-5.43-.05s-5.35.05-5.35.05c.1-.41.36-2.06.38-2.46h1.73a1.65,1.65,0,0,0,1.78-1.55Z"/><path class="cls-2" d="M172.15,153.28a4.91,4.91,0,0,1,4-1.8c3.27,0,4.72,2,4.21,5.48-.56,3.81-3.75,6-7.51,6-4.47,0-6.39-2.56-5.51-8.53,1-6.75,4.62-9.87,9-9.87,3.32,0,4.62,1.52,4.49,3.45a2.43,2.43,0,0,1-2.61,2.59c-1.37,0-2.08-.81-2-1.88a2.14,2.14,0,0,1,2.38-1.85,3.44,3.44,0,0,1,.51.05,2.55,2.55,0,0,0-2.23-.84C174.41,146.1,173,148,172.15,153.28Zm1.07,7.82c1.52,0,2.21-1.45,2.59-4s-.13-3.73-1.45-3.73c-1.5,0-2.36.94-2.77,3.73C171.21,159.65,171.46,161.1,173.22,161.1Z"/><path class="cls-3" d="M11.47,188.79h9.62v26.28H37.9v8.43H11.47Z"/><path class="cls-3" d="M40.43,206.24v-.1c0-10,8-18.05,18.75-18.05s18.65,8,18.65,18v.1c0,10-8,18.05-18.75,18.05S40.43,216.21,40.43,206.24Zm27.52,0v-.1c0-5.06-3.57-9.37-8.88-9.37S50.25,201,50.25,206v.1c0,5,3.62,9.37,8.93,9.37S68,211.25,68,206.24Z"/><path class="cls-3" d="M83.13,206.24v-.1c0-10,8-18.05,18.75-18.05s18.65,8,18.65,18v.1c0,10-8,18.05-18.75,18.05S83.13,216.21,83.13,206.24Zm27.52,0v-.1c0-5.06-3.57-9.37-8.88-9.37S92.95,201,92.95,206v.1c0,5,3.62,9.37,8.93,9.37S110.65,211.25,110.65,206.24Z"/><path class="cls-3" d="M127,188.79h9.62v14.08l12-14.08h11.36L146.8,203.66l13.59,19.84h-11.5l-8.78-12.89-3.52,3.87v9H127Z"/><path class="cls-3" d="M164.65,188.79h17.8c4.36,0,7.44,1.09,9.47,3.08a7.81,7.81,0,0,1,2.23,5.65v.1c0,4-2.28,6.4-5.36,7.74,4.22,1.39,6.89,3.77,6.89,8.48v.1c0,6-4.86,9.57-13.14,9.57h-17.9Zm20,10.71c0-1.93-1.54-3-4.36-3H174v6.1h6c2.93,0,4.61-1,4.61-3Zm-3.32,9.87H174v6.4h7.44c3,0,4.61-1.14,4.61-3.17v-.1C186.08,210.61,184.59,209.37,181.37,209.37Z"/><path class="cls-3" d="M200.46,206.24v-.1c0-10,8-18.05,18.75-18.05s18.65,8,18.65,18v.1c0,10-8,18.05-18.75,18.05S200.46,216.21,200.46,206.24Zm27.52,0v-.1c0-5.06-3.57-9.37-8.88-9.37s-8.83,4.26-8.83,9.27v.1c0,5,3.62,9.37,8.93,9.37S228,211.25,228,206.24Z"/><path class="cls-3" d="M243.15,206.24v-.1c0-10,8-18.05,18.75-18.05s18.65,8,18.65,18v.1c0,10-8,18.05-18.75,18.05S243.15,216.21,243.15,206.24Zm27.52,0v-.1c0-5.06-3.57-9.37-8.88-9.37S253,201,253,206v.1c0,5,3.62,9.37,8.93,9.37S270.68,211.25,270.68,206.24Z"/><path class="cls-3" d="M287,188.79h9.62v14.08l12-14.08H320l-13.14,14.88,13.59,19.84h-11.5l-8.78-12.89-3.52,3.87v9H287Z"/><path class="cls-4" d="M121,21c.27-2.56,1.39-5.25,3.88-5.25,1.84,0,2.52,1.1,2.52,2.84a4.6,4.6,0,0,1,4.16-2.84c1.72,0,2.59.77,2.61,2.66a4.51,4.51,0,0,1,4.08-2.66c2.29,0,3.21,1.42,2.32,5.06l-.82,3.29c-.47,1.84-.4,2.42.15,2.42S141,25.06,141.24,23l1,0c-.22,2.61-1.39,5.18-4.11,5.18s-3.14-1.84-2.34-4.73l.75-2.79c.7-2.59.42-3.21-.2-3.21-1,0-1.82,1-2.79,4.78l0,.1-1.17,5.35s-1.29-.07-2-.07-2,.07-2,.07c.45-1.69,1.34-5.35,1.69-7,.52-2.44.4-3.19-.3-3.19-.95,0-2.07,1.22-3,5.65l-.95,4.58s-1.25-.07-1.94-.07-1.92.07-1.92.07c.45-1.89,1.29-5.88,1.64-7.82s.47-2.42,0-2.42c-.75,0-1.25,1.49-1.49,3.49Z"/><path class="cls-4" d="M160.28,23.09c-.25,2.56-1.47,5.18-3.86,5.18-1.84,0-2.66-.75-2.59-2.81a4.39,4.39,0,0,1-4,2.81c-2.66,0-3.14-1.94-2.39-5.08l.82-3.19c.45-1.77.45-2.47,0-2.47-.77,0-1.29,1.49-1.52,3.49l-1,0c.27-2.56,1.39-5.25,4-5.25s3.09,2.14,2.44,4.73l-.7,2.76c-.57,2.29-.47,3.24.25,3.24s2-.95,3-5.7l1-4.61s1.25,0,1.94,0,1.92,0,1.92,0c-.42,1.87-1.27,5.9-1.64,7.74s-.45,2.59,0,2.59S159,25.06,159.31,23Z"/><path class="cls-4" d="M168.29,17.84c-.35,1,.05,1.69,2,2.34,3,1,3.63,2.84,2.91,5-.65,1.94-2.54,3.09-5.33,3.09-3,0-4.73-1.12-4.31-2.94a1.63,1.63,0,0,1,1.67-1.27,1.18,1.18,0,0,1,1.25,1.57,1.42,1.42,0,0,1-1.49,1,4,4,0,0,0,2.27.57c1.35,0,2.39-.4,2.62-1.32s-.07-1.64-2.07-2.32c-2.76-.95-3.44-2.64-2.74-4.76.55-1.67,2.37-3.06,5.18-3.06s4.26,1.17,3.91,2.79a1.49,1.49,0,0,1-1.59,1.17c-.95,0-1.49-.62-1.25-1.47a1.33,1.33,0,0,1,1.27-1,3.81,3.81,0,0,0-1.84-.45C169.29,16.74,168.52,17.24,168.29,17.84Z"/><path class="cls-4" d="M183.15,24.34c-.4,1.59-.3,2.12.25,2.12s1-1.34,1.32-3.41l1,0c-.22,2.49-1.32,5.18-4.08,5.18-2.32,0-3.26-1.44-2.42-4.51l1.15-4.16c.4-1.37.32-2.07,0-2.07-.8,0-1.32,1.49-1.54,3.49l-1,0c.3-2.69,1.47-5.25,3.91-5.25s3.19,1.79,2.49,4.66Zm-.32-10a1.87,1.87,0,0,1-1.92-2.22,2.47,2.47,0,0,1,2.59-2.24,1.9,1.9,0,0,1,2,2.24A2.52,2.52,0,0,1,182.83,14.3Z"/><path class="cls-4" d="M189.12,21c.27-2.56,1.39-5.25,3.88-5.25,1.84,0,2.52,1.1,2.52,2.84a4.59,4.59,0,0,1,4.16-2.84c1.72,0,2.59.77,2.62,2.66a4.51,4.51,0,0,1,4.08-2.66c2.29,0,3.21,1.42,2.32,5.06l-.82,3.29c-.47,1.84-.4,2.42.15,2.42s1.07-1.42,1.35-3.44l1,0c-.22,2.61-1.39,5.18-4.11,5.18s-3.14-1.84-2.34-4.73l.75-2.79c.7-2.59.42-3.21-.2-3.21-1,0-1.82,1-2.79,4.78l0,.1-1.17,5.35s-1.29-.07-2-.07-2,.07-2,.07c.45-1.69,1.35-5.35,1.69-7,.52-2.44.4-3.19-.3-3.19-.95,0-2.07,1.22-3,5.65l-.95,4.58s-1.25-.07-1.94-.07-1.92.07-1.92.07c.45-1.89,1.29-5.88,1.64-7.82s.47-2.42,0-2.42c-.75,0-1.24,1.49-1.49,3.49Z"/><path class="cls-4" d="M133.05,42.21a4.05,4.05,0,0,1-3.69,2.56c-2,0-3.34-1.39-2.86-5.15.67-5.18,3.26-7.4,5.7-7.4,2.12,0,2.86,1,3,2.56a4.92,4.92,0,0,0,2-2.49c.27,0,1.39,0,1.69,0-.62,2.64-1.69,8-2.14,10.66-.8,4.63-3.64,6.35-7.1,6.35-2.94,0-4-1.44-3.56-2.84a1.71,1.71,0,0,1,1.77-1.32,1.23,1.23,0,0,1,1.37,1.47,1.51,1.51,0,0,1-1.89,1.2,2.69,2.69,0,0,0,2,.7c2.71,0,3-2.54,3.61-5.68Zm.95-4.73c.45-2.44.35-3.44-.67-3.44s-1.92,1.42-2.64,5.53c-.47,2.69-.32,3.39.55,3.39S133.33,41.26,134,37.48Z"/><path class="cls-4" d="M156.72,39.59c-.25,2.56-1.47,5.18-3.86,5.18-1.84,0-2.66-.75-2.59-2.81a4.39,4.39,0,0,1-4,2.81c-2.66,0-3.14-1.94-2.39-5.08l.82-3.19c.45-1.77.45-2.47,0-2.47-.77,0-1.29,1.49-1.52,3.49l-1,0c.27-2.56,1.39-5.25,4-5.25s3.09,2.14,2.44,4.73l-.7,2.76c-.57,2.29-.47,3.24.25,3.24s2-.95,3-5.7l1-4.61s1.25,0,1.94,0,1.92,0,1.92,0c-.42,1.87-1.27,5.9-1.64,7.74s-.45,2.59,0,2.59,1.15-1.42,1.42-3.44Z"/><path class="cls-4" d="M167.22,42.21a4.05,4.05,0,0,1-3.69,2.56c-2,0-3.34-1.39-2.86-5.15.67-5.18,3.26-7.4,5.7-7.4,2.12,0,2.86,1,3,2.56a4.91,4.91,0,0,0,2-2.49c.27,0,1.39,0,1.69,0-.62,2.64-1.69,8-2.14,10.66-.8,4.63-3.64,6.35-7.1,6.35-2.94,0-4-1.44-3.56-2.84A1.71,1.71,0,0,1,162,45.15a1.23,1.23,0,0,1,1.37,1.47,1.51,1.51,0,0,1-1.89,1.2,2.69,2.69,0,0,0,2,.7c2.71,0,3-2.54,3.61-5.68Zm.95-4.73c.45-2.44.35-3.44-.67-3.44s-1.92,1.42-2.64,5.53c-.47,2.69-.32,3.39.55,3.39S167.5,41.26,168.17,37.48Z"/><path class="cls-4" d="M190.89,39.59c-.25,2.56-1.47,5.18-3.86,5.18-1.84,0-2.66-.75-2.59-2.81a4.39,4.39,0,0,1-4,2.81c-2.67,0-3.14-1.94-2.39-5.08l.82-3.19c.45-1.77.45-2.47,0-2.47-.77,0-1.29,1.49-1.52,3.49l-1,0c.27-2.56,1.39-5.25,4-5.25s3.09,2.14,2.44,4.73l-.7,2.76c-.57,2.29-.47,3.24.25,3.24s2-.95,3-5.7l1-4.61s1.25,0,1.94,0,1.92,0,1.92,0c-.42,1.87-1.27,5.9-1.64,7.74S188,43,188.5,43c.65,0,1.15-1.42,1.42-3.44Z"/><path class="cls-4" d="M204.13,34.41a.93.93,0,0,0-1-.72c-1,0-2,.7-2.66,3.56-.27,1.29-1.32,6.28-1.44,7,0,0-1.22,0-1.92,0s-1.92,0-1.92,0c.42-1.82,1.22-5.8,1.59-7.62s.55-2.64,0-2.64c-.75,0-1.29,1.49-1.52,3.49l-1,0c.27-2.56,1.39-5.25,4-5.25a2.19,2.19,0,0,1,2.39,2.19,3.26,3.26,0,0,1,3-2.19c1.54,0,2.42,1,2.17,2.91s-1.12,2.49-2.29,2.49A1.49,1.49,0,0,1,202,35.71,1.74,1.74,0,0,1,204.13,34.41Z"/></svg>