<svg id="Isolation_Mode" data-name="Isolation Mode" xmlns="http://www.w3.org/2000/svg" width="330" height="255" viewBox="0 0 330 255"><defs><style>.cls-1{fill:#fff;opacity:0;}.cls-2{fill:#e1a569;}.cls-3{fill:#e4a864;}.cls-4{fill:#e6aa5e;}</style></defs><title>LookBook_FallLogo_English</title><rect class="cls-1" width="330" height="255"/><path class="cls-2" d="M111.06,100.83a6,6,0,0,1-5.9-6.19v-.07A5.85,5.85,0,0,1,111,88.45a5.91,5.91,0,0,1,5.87,6.19v.06a5.85,5.85,0,0,1-5.8,6.13m-.06,5.73a12,12,0,0,0,12.39-11.93v-.07c0-6.59-5.24-11.86-12.32-11.86A12,12,0,0,0,98.67,94.64v.06c0,6.59,5.24,11.87,12.32,11.87"/><polygon class="cls-2" points="206.2 105.97 212.49 105.97 212.49 93.39 222.32 105.97 227.86 105.97 227.86 83.03 221.57 83.03 221.57 95.16 212.13 83.03 206.2 83.03 206.2 105.97"/><polygon class="cls-2" points="243.9 172.98 166.47 95.55 243.9 18.12 242.43 16.65 165 94.08 87.57 16.65 86.1 18.12 163.53 95.55 86.1 172.98 87.57 174.44 165 97.02 242.43 174.44 243.9 172.98"/><path class="cls-2" d="M151.38,145.19a1.6,1.6,0,0,0-1.47.8c.25-1.72,1.42-3,3.74-3.5l-.12-.63c-2.55.45-4.39,2.1-4.61,4.44-.13,1.4.5,2.32,1.77,2.32a2,2,0,0,0,2.1-1.89,1.31,1.31,0,0,0-1.4-1.55"/><path class="cls-2" d="M159.92,150.57l-2.92.13a15.33,15.33,0,0,0,.41-2.56h.89a4.46,4.46,0,0,0,4.72-3.43c.46,0,2.18,0,2.61,0,0,0-.86,3.25-1.42,6.65L163,158.64c-.15.86.05,1.55,1.22,1.55h1.5c-.1.41-.36,2.06-.38,2.46,0,0-3.48-.05-5.43-.05s-5.35.05-5.35.05c.1-.41.36-2.06.38-2.46h1.73a1.65,1.65,0,0,0,1.78-1.55Z"/><path class="cls-2" d="M172.15,153.28a4.91,4.91,0,0,1,4-1.8c3.27,0,4.72,2,4.21,5.48-.56,3.81-3.75,6-7.51,6-4.47,0-6.39-2.56-5.51-8.53,1-6.75,4.62-9.87,9-9.87,3.32,0,4.62,1.52,4.49,3.45a2.43,2.43,0,0,1-2.61,2.59c-1.37,0-2.08-.81-2-1.88a2.14,2.14,0,0,1,2.38-1.85,3.44,3.44,0,0,1,.51.05,2.55,2.55,0,0,0-2.23-.84C174.41,146.1,173,148,172.15,153.28Zm1.07,7.82c1.52,0,2.21-1.45,2.59-4s-.13-3.73-1.45-3.73c-1.5,0-2.36.94-2.77,3.73C171.21,159.65,171.46,161.1,173.22,161.1Z"/><path class="cls-3" d="M11.47,190.29h9.62v26.28H37.9V225H11.47Z"/><path class="cls-3" d="M40.43,207.74v-.1c0-10,8-18.05,18.75-18.05s18.65,8,18.65,18v.1c0,10-8,18.05-18.75,18.05S40.43,217.71,40.43,207.74Zm27.52,0v-.1c0-5.06-3.57-9.37-8.88-9.37s-8.83,4.26-8.83,9.27v.1c0,5,3.62,9.37,8.93,9.37S68,212.75,68,207.74Z"/><path class="cls-3" d="M83.13,207.74v-.1c0-10,8-18.05,18.75-18.05s18.65,8,18.65,18v.1c0,10-8,18.05-18.75,18.05S83.13,217.71,83.13,207.74Zm27.52,0v-.1c0-5.06-3.57-9.37-8.88-9.37s-8.83,4.26-8.83,9.27v.1c0,5,3.62,9.37,8.93,9.37S110.65,212.75,110.65,207.74Z"/><path class="cls-3" d="M127,190.29h9.62v14.08l12-14.08h11.36L146.8,205.16,160.39,225h-11.5l-8.78-12.89L136.59,216v9H127Z"/><path class="cls-3" d="M164.65,190.29h17.8c4.36,0,7.44,1.09,9.47,3.08a7.81,7.81,0,0,1,2.23,5.65v.1c0,4-2.28,6.4-5.36,7.74,4.22,1.39,6.89,3.77,6.89,8.48v.1c0,6-4.86,9.57-13.14,9.57h-17.9Zm20,10.71c0-1.93-1.54-3-4.36-3H174v6.1h6c2.93,0,4.61-1,4.61-3Zm-3.32,9.87H174v6.4h7.44c3,0,4.61-1.14,4.61-3.17V214C186.08,212.11,184.59,210.87,181.37,210.87Z"/><path class="cls-3" d="M200.46,207.74v-.1c0-10,8-18.05,18.75-18.05s18.65,8,18.65,18v.1c0,10-8,18.05-18.75,18.05S200.46,217.71,200.46,207.74Zm27.52,0v-.1c0-5.06-3.57-9.37-8.88-9.37s-8.83,4.26-8.83,9.27v.1c0,5,3.62,9.37,8.93,9.37S228,212.75,228,207.74Z"/><path class="cls-3" d="M243.15,207.74v-.1c0-10,8-18.05,18.75-18.05s18.65,8,18.65,18v.1c0,10-8,18.05-18.75,18.05S243.15,217.71,243.15,207.74Zm27.52,0v-.1c0-5.06-3.57-9.37-8.88-9.37s-8.83,4.26-8.83,9.27v.1c0,5,3.62,9.37,8.93,9.37S270.68,212.75,270.68,207.74Z"/><path class="cls-3" d="M287,190.29h9.62v14.08l12-14.08H320l-13.14,14.88L320.42,225h-11.5l-8.78-12.89L296.61,216v9H287Z"/><path class="cls-4" d="M149.31,34.22l2.32,0-.2,1.27-2.32,0-.17,1.22c-1.44,10.53-4.11,14.19-7.92,14.19-1.94,0-2.84-1-2.54-2.27a1.54,1.54,0,0,1,1.59-1.27,1.1,1.1,0,0,1,1.2,1.42,1.42,1.42,0,0,1-1.64,1,1.25,1.25,0,0,0,.82.22c2.27,0,2.81-2.69,3.76-9.19a32.61,32.61,0,0,1,1.15-5.28l-1.54,0,.17-1.29,1.77.07c1.87-5,4.53-6.13,6.42-6.13s3,1.25,2.79,2.76S154,33,152.88,33s-1.69-.62-1.52-1.59a1.7,1.7,0,0,1,2.32-1.22,1.36,1.36,0,0,0-1.34-.87C150.91,29.29,150,30.58,149.31,34.22Z"/><path class="cls-4" d="M163.79,46.27c-1.82,0-2.64-.77-2.52-2.76a4.29,4.29,0,0,1-3.91,2.76c-2,0-3.29-1.39-2.81-5.15.67-5.18,3.26-7.4,5.7-7.4,1.92,0,2.71,1,2.91,2.29a7.93,7.93,0,0,0,1.59-1.84c.37,0,1.77,0,2.14,0-.45,1.89-1.27,5.93-1.57,7.82s-.25,2.49.17,2.49c.6,0,1.1-1.42,1.37-3.44l1,0C167.58,44.21,166.13,46.27,163.79,46.27ZM162.05,39c.45-2.44.35-3.44-.67-3.44s-1.92,1.42-2.64,5.53c-.47,2.69-.32,3.39.55,3.39S161.38,42.76,162.05,39Z"/><path class="cls-4" d="M175.66,42.11c-.35,1.87-.3,2.37.22,2.37s1.1-1.39,1.34-3.44l1,0c-.22,2.61-1.47,5.18-4,5.18-2.29,0-3-1.32-2.22-4.76.62-2.61,1.52-7.32,1.92-9.64.15-.75.08-1.32-.85-1.32h-.47c.07-.32.22-1.64.25-2,1.25,0,4,0,5.21,0a13.7,13.7,0,0,1-.32,3.11C177.06,35,176.19,39.35,175.66,42.11Z"/><path class="cls-4" d="M186,42.11c-.35,1.87-.3,2.37.22,2.37s1.1-1.39,1.34-3.44l1,0c-.22,2.61-1.47,5.18-4,5.18-2.29,0-3-1.32-2.22-4.76.62-2.61,1.52-7.32,1.92-9.64.15-.75.08-1.32-.85-1.32H183c.07-.32.22-1.64.25-2,1.25,0,4,0,5.21,0a13.7,13.7,0,0,1-.32,3.11C187.42,35,186.55,39.35,186,42.11Z"/></svg>